<svg xmlns="http://www.w3.org/2000/svg" xmlns:xlink="http://www.w3.org/1999/xlink" width="500" zoomAndPan="magnify" viewBox="0 0 375 374.999991" height="500" preserveAspectRatio="xMidYMid meet" version="1.0"><defs><clipPath id="5fd72e8fcc"><path d="M 10 0 L 365 0 L 365 375 L 10 375 Z M 10 0 " clip-rule="nonzero"/></clipPath><clipPath id="2db410fc6b"><path d="M 214.09375 174.710938 L 54.628906 174.710938 C 48.445312 174.710938 43.96875 168.808594 45.640625 162.851562 L 89.417969 6.828125 C 90.550781 2.800781 94.222656 0.015625 98.40625 0.015625 L 257.875 0.015625 C 264.058594 0.015625 268.535156 5.921875 266.863281 11.875 L 223.085938 167.898438 C 221.953125 171.925781 218.28125 174.710938 214.09375 174.710938 Z M 110.519531 292.480469 L 133.0625 212.148438 C 134.730469 206.191406 130.257812 200.289062 124.070312 200.289062 L 42.097656 200.289062 C 37.914062 200.289062 34.238281 203.074219 33.109375 207.101562 L 10.566406 287.4375 C 8.894531 293.390625 13.371094 299.296875 19.554688 299.296875 L 101.53125 299.296875 C 105.714844 299.296875 109.386719 296.511719 110.519531 292.480469 Z M 152 207.101562 L 108.222656 363.125 C 106.550781 369.078125 111.027344 374.984375 117.210938 374.984375 L 276.679688 374.984375 C 280.863281 374.984375 284.535156 372.199219 285.667969 368.171875 L 329.445312 212.148438 C 331.117188 206.191406 326.640625 200.289062 320.457031 200.289062 L 160.988281 200.289062 C 156.804688 200.289062 153.132812 203.074219 152 207.101562 Z M 264.566406 82.519531 L 242.023438 162.851562 C 240.355469 168.808594 244.828125 174.710938 251.015625 174.710938 L 332.988281 174.710938 C 337.171875 174.710938 340.847656 171.925781 341.976562 167.898438 L 364.519531 87.5625 C 366.191406 81.609375 361.714844 75.703125 355.53125 75.703125 L 273.554688 75.703125 C 269.371094 75.703125 265.695312 78.488281 264.566406 82.519531 Z M 264.566406 82.519531 " clip-rule="nonzero"/></clipPath></defs><g clip-path="url(#5fd72e8fcc)"><g clip-path="url(#2db410fc6b)"><path fill="#eefb03" d="M 8.894531 0.015625 L 8.894531 374.984375 L 365.863281 374.984375 L 365.863281 0.015625 Z M 8.894531 0.015625 " fill-opacity="1" fill-rule="nonzero"/></g></g></svg>